# This file uses centimeters as units for non-parametric coordinates.

mtllib origami.mtl
v -0.000757 0.678091 0.417747
v -0.479314 0.609490 -0.214229
v -0.160964 0.754888 -0.717782
v -0.422605 0.913636 -0.697560
v -0.303370 0.321250 -0.598557
v -0.480352 0.350633 -0.622175
v -0.140152 0.012820 0.513981
v -0.066144 1.001971 0.452364
v -0.086107 1.247032 -0.207533
v -0.380803 0.009923 -0.373813
v 0.000000 1.911753 0.219254
v -0.077670 1.828357 -0.081682
v -0.477213 0.617652 -0.193295
v 0.000000 1.264615 0.353746
v 0.000000 1.738729 0.626034
v -0.005148 1.670052 0.600228
v -0.242967 0.630853 -0.181906
v -0.327966 0.202470 -0.346105
v -0.083152 1.274396 -0.206985
v -0.100366 0.443004 -0.253222
v -0.061013 0.471122 -0.643489
v -0.160964 0.754888 -0.717782
v -0.066144 1.001971 0.452364
v -0.013235 1.051950 -2.695099
v -0.013236 0.979527 -2.657813
v -0.045554 0.489087 -0.626896
v -0.053221 0.671828 0.091619
v -0.007964 1.081727 -2.685266
v -0.019294 0.839805 -0.688161
v -0.002861 0.730006 -0.355668
v -0.002430 0.892328 -1.269745
v 0.000757 0.678091 0.417747
v 0.479314 0.609490 -0.214229
v 0.160964 0.754888 -0.717782
v 0.422605 0.913636 -0.697560
v 0.303370 0.321250 -0.598557
v 0.480352 0.350633 -0.622175
v 0.140152 0.012820 0.513981
v 0.066144 1.001971 0.452364
v 0.086107 1.247032 -0.207533
v 0.380803 0.009923 -0.373813
v 0.077670 1.828357 -0.081682
v 0.477213 0.617652 -0.193295
v 0.005148 1.670052 0.600228
v 0.242967 0.630853 -0.181906
v 0.327966 0.202470 -0.346105
v 0.083152 1.274396 -0.206985
v 0.100366 0.443004 -0.253222
v 0.061013 0.471122 -0.643489
v 0.160964 0.754888 -0.717782
v 0.066144 1.001971 0.452364
v 0.013235 1.051950 -2.695099
v 0.013236 0.979527 -2.657813
v 0.045554 0.489087 -0.626896
v 0.053221 0.671828 0.091619
v 0.007964 1.081727 -2.685266
v 0.019294 0.839805 -0.688161
v 0.002861 0.730006 -0.355668
v 0.002430 0.892328 -1.269745
v 0.000000 0.878695 -0.023500
v -0.103447 0.754225 -0.465689
v 0.000000 0.777685 -0.341224
v 0.103447 0.754225 -0.465689
v 0.025969 0.815109 0.207215
v -0.025187 0.814695 0.212570
vt 0.000000 0.000000
vt 1.000000 0.000000
vt 0.000000 1.000000
vt 1.000000 1.000000
vt 0.000000 0.000000
vt 1.000000 0.000000
vt 1.000000 1.000000
vt 0.000000 1.000000
vt 0.000000 0.000000
vt 1.000000 0.000000
vt 0.500000 1.000000
vt 0.549059 0.000000
vt 0.549059 0.000000
vt 0.549059 1.000000
vt 0.549059 0.000000
vt 0.549059 1.000000
vt 1.000000 1.000000
vt 0.000000 1.000000
vt 1.034080 0.031985
vt 0.000000 0.040505
vt 0.000000 0.000000
vt 1.000000 0.000000
vt 1.000000 1.000000
vt 0.000000 1.000000
vt 0.549059 0.447271
vt 0.549059 0.821216
vt -0.002477 0.031210
vt 1.000000 0.000000
vt 1.000000 1.000000
vt 1.000000 1.000000
vt 0.000000 1.000000
vt 1.000000 0.222273
vt 0.000000 0.222273
vt 0.000000 0.000000
vt 1.000000 0.000000
vt 1.000000 1.000000
vt 0.000000 1.000000
vt 0.000000 0.000000
vt 1.000000 0.000000
vt 1.000000 1.000000
vt 0.000000 1.000000
vt 0.000000 0.000000
vt 1.000000 0.000000
vt 1.000000 1.000000
vt 0.000000 1.000000
vt 0.000000 0.000000
vt 1.000000 0.000000
vt 1.000000 1.000000
vt 0.000000 1.000000
vt 0.000000 0.000000
vt 1.000000 0.000000
vt 1.000000 1.000000
vt 0.000000 1.000000
vt 0.000000 0.000000
vt 0.549059 0.000000
vt 0.549059 1.000000
vt 0.000000 0.000000
vt 0.549059 0.000000
vt 0.549059 0.447271
vt 0.000000 0.000000
vt 0.549059 0.000000
vt 0.500000 1.000000
vt 1.000000 0.000000
vt 1.000000 1.000000
vt 1.000000 0.000000
vt 1.000000 0.000000
vt 0.000000 1.000000
vt 0.000000 0.040505
vt 1.034080 0.031985
vt 1.000000 1.000000
vt 0.000000 1.000000
vt 0.000000 0.000000
vt 1.000000 0.000000
vt 1.000000 1.000000
vt 0.000000 1.000000
vt 1.000000 1.000000
vt 0.549059 0.821216
vt 0.000000 1.000000
vt 0.549059 1.000000
vt -0.002477 0.031210
vt 1.000000 0.000000
vt 1.000000 1.000000
vt 0.000000 0.222273
vt 1.000000 0.222273
vt 1.000000 1.000000
vt 0.000000 1.000000
vt 0.000000 0.000000
vt 1.000000 0.000000
vt 1.000000 1.000000
vt 0.000000 1.000000
vt 0.000000 0.000000
vt 1.000000 0.000000
vt 1.000000 1.000000
vt 0.000000 1.000000
vt 0.000000 0.000000
vt 1.000000 0.000000
vt 1.000000 1.000000
vt 0.000000 1.000000
vt 0.000000 0.000000
vt 1.000000 0.000000
vt 1.000000 1.000000
vt 0.000000 1.000000
vt 0.000000 0.000000
vt 1.000000 0.000000
vt 1.000000 1.000000
vt 0.000000 1.000000
vt 0.000000 0.500000
vt 1.000000 0.000000
vt 1.000000 1.000000
vt 0.000000 0.000000
vt 1.000000 0.500000
vt 0.000000 1.000000
vt 0.000000 0.000000
vt 1.000000 0.000000
vt 1.000000 1.000000
vt 0.000000 1.000000
vt 0.000000 0.000000
vt 1.000000 0.000000
vt 1.000000 1.000000
vt 0.000000 1.000000
vt 0.000000 0.157370
vt 0.000000 0.152492
vn 0.980216 0.193387 0.042164
vn 0.980216 0.193387 0.042164
vn 0.980216 0.193387 0.042164
vn -0.965908 0.242073 -0.091778
vn -0.965908 0.242073 -0.091778
vn -0.965908 0.242073 -0.091778
vn 0.887616 -0.393528 -0.239319
vn 0.887616 -0.393528 -0.239319
vn 0.887616 -0.393528 -0.239319
vn -0.830664 0.509968 0.223448
vn -0.830664 0.509968 0.223448
vn -0.830664 0.509968 0.223448
vn 0.868687 -0.239182 -0.433791
vn 0.868687 -0.239182 -0.433791
vn 0.868687 -0.239182 -0.433791
vn -0.961117 -0.090692 0.260823
vn -0.961117 -0.090692 0.260823
vn -0.961117 -0.090692 0.260823
vn -0.832249 0.511035 0.214956
vn -0.832249 0.511035 0.214956
vn -0.832249 0.511035 0.214956
vn 0.994931 0.071039 -0.071169
vn 0.991438 0.013495 -0.129882
vn 0.989555 -0.000640 -0.144155
vn -0.889379 0.196352 0.412858
vn -0.889379 0.196352 0.412858
vn -0.889379 0.196352 0.412858
vn -0.889379 0.196352 0.412858
vn 0.962847 -0.233725 -0.135270
vn 0.962847 -0.233725 -0.135270
vn 0.962847 -0.233725 -0.135270
vn 0.962847 -0.233725 -0.135270
vn 0.899646 -0.091286 -0.426971
vn 0.899646 -0.091286 -0.426971
vn 0.899646 -0.091286 -0.426971
vn 0.899646 -0.091286 -0.426971
vn -0.964987 0.257242 -0.051253
vn -0.964987 0.257242 -0.051253
vn -0.964987 0.257242 -0.051253
vn -0.964987 0.257242 -0.051253
vn 0.829277 -0.150099 -0.538302
vn 0.829277 -0.150099 -0.538302
vn 0.829277 -0.150099 -0.538302
vn -0.964999 0.260684 0.028634
vn -0.964999 0.260684 0.028634
vn -0.964999 0.260684 0.028634
vn 0.848423 -0.511881 -0.134743
vn 0.848423 -0.511881 -0.134743
vn 0.848423 -0.511881 -0.134743
vn 0.991915 0.115969 -0.051532
vn 0.991915 0.115969 -0.051532
vn 0.991915 0.115968 -0.051532
vn 0.991915 0.115968 -0.051532
vn 0.948084 0.299524 0.106876
vn 0.948084 0.299524 0.106876
vn 0.948084 0.299524 0.106876
vn 0.948084 0.299524 0.106876
vn -0.961972 -0.253367 0.102052
vn -0.961972 -0.253367 0.102052
vn -0.961972 -0.253367 0.102052
vn -0.961972 -0.253367 0.102052
vn -0.853080 -0.499938 -0.149389
vn -0.853080 -0.499938 -0.149389
vn -0.853080 -0.499938 -0.149389
vn -0.853080 -0.499938 -0.149389
vn 0.983822 -0.179100 0.004224
vn 0.983822 -0.179100 0.004224
vn 0.983822 -0.179100 0.004224
vn 0.983822 -0.179100 0.004224
vn 0.992680 -0.120444 -0.008958
vn 0.992680 -0.120444 -0.008958
vn 0.992680 -0.120444 -0.008958
vn 0.992680 -0.120444 -0.008958
vn -0.980216 0.193387 0.042164
vn -0.980216 0.193387 0.042164
vn -0.980216 0.193387 0.042164
vn 0.965908 0.242073 -0.091778
vn 0.965908 0.242073 -0.091778
vn 0.965908 0.242073 -0.091778
vn -0.887616 -0.393528 -0.239319
vn -0.887616 -0.393528 -0.239319
vn -0.887616 -0.393528 -0.239319
vn 0.830664 0.509968 0.223448
vn 0.830665 0.509968 0.223448
vn 0.830665 0.509968 0.223448
vn -0.868687 -0.239182 -0.433791
vn -0.868687 -0.239182 -0.433791
vn -0.868687 -0.239182 -0.433791
vn 0.961117 -0.090692 0.260823
vn 0.961117 -0.090692 0.260823
vn 0.961117 -0.090692 0.260823
vn 0.832249 0.511035 0.214956
vn 0.832249 0.511035 0.214956
vn 0.832249 0.511035 0.214956
vn -0.991399 0.012988 -0.130227
vn -0.989558 -0.000622 -0.144133
vn -0.989525 -0.000842 -0.144358
vn 0.889379 0.196352 0.412858
vn 0.889379 0.196352 0.412858
vn 0.889379 0.196352 0.412858
vn 0.889379 0.196352 0.412858
vn -0.962847 -0.233725 -0.135270
vn -0.962847 -0.233725 -0.135270
vn -0.962847 -0.233725 -0.135270
vn -0.962847 -0.233725 -0.135270
vn -0.899646 -0.091286 -0.426971
vn -0.899646 -0.091286 -0.426971
vn -0.899646 -0.091286 -0.426971
vn -0.899646 -0.091286 -0.426971
vn 0.964987 0.257242 -0.051253
vn 0.964987 0.257242 -0.051253
vn 0.964987 0.257242 -0.051253
vn 0.964987 0.257242 -0.051253
vn -0.829277 -0.150100 -0.538302
vn -0.829277 -0.150100 -0.538302
vn -0.829277 -0.150100 -0.538302
vn 0.964999 0.260684 0.028634
vn 0.964999 0.260684 0.028634
vn 0.964999 0.260684 0.028634
vn -0.848423 -0.511881 -0.134743
vn -0.848423 -0.511881 -0.134743
vn -0.848423 -0.511881 -0.134743
vn -0.991915 0.115969 -0.051532
vn -0.991915 0.115969 -0.051532
vn -0.991915 0.115969 -0.051532
vn -0.991915 0.115969 -0.051532
vn -0.948084 0.299524 0.106876
vn -0.948084 0.299524 0.106876
vn -0.948084 0.299524 0.106876
vn -0.948084 0.299524 0.106876
vn 0.961972 -0.253367 0.102052
vn 0.961972 -0.253367 0.102052
vn 0.961972 -0.253367 0.102052
vn 0.961972 -0.253367 0.102052
vn 0.853080 -0.499938 -0.149389
vn 0.853080 -0.499938 -0.149389
vn 0.853080 -0.499938 -0.149389
vn 0.853080 -0.499938 -0.149389
vn -0.983822 -0.179100 0.004224
vn -0.983822 -0.179099 0.004224
vn -0.983822 -0.179100 0.004224
vn -0.983822 -0.179100 0.004224
vn -0.992680 -0.120444 -0.008958
vn -0.992680 -0.120444 -0.008958
vn -0.992680 -0.120444 -0.008958
vn -0.992680 -0.120444 -0.008958
vn -0.979840 -0.139655 0.142866
vn -0.979840 -0.139655 0.142866
vn -0.979840 -0.139655 0.142866
vn 0.979840 -0.139655 0.142866
vn 0.979840 -0.139655 0.142866
vn 0.979840 -0.139655 0.142866
vn -0.930544 -0.232281 0.283079
vn -0.930544 -0.232281 0.283079
vn -0.930544 -0.232281 0.283079
vn -0.930544 -0.232281 0.283079
vn 0.930544 -0.232281 0.283079
vn 0.930544 -0.232281 0.283079
vn 0.930544 -0.232281 0.283079
vn 0.930544 -0.232281 0.283079
vn -0.994932 0.064310 -0.077292
vn 0.989525 -0.000842 -0.144359
s off
g pPlane6
usemtl initialShadingGroup
f 1/1/1 9/14/2 8/12/3
f 3/5/4 17/25/5 9/13/6
f 5/9/7 7/11/8 10/15/9
f 9/14/10 4/4/11 2/2/12
f 4/6/13 9/13/14 17/25/15
f 7/11/16 6/10/17 10/15/18
f 8/12/19 9/14/20 2/2/21
s 1
f 1/1/22 65/122/23 9/14/24
s off
f 14/20/25 11/18/26 12/17/27 13/19/28
f 11/21/29 15/24/30 16/23/31 12/22/32
f 6/7/33 4/6/34 17/25/35 18/26/36
f 3/5/37 5/8/38 18/26/39 17/25/40
f 10/16/41 6/7/42 18/26/43
f 5/8/44 10/16/45 18/26/46
f 13/27/47 19/29/48 14/28/49
f 23/33/50 20/31/51 21/30/52 22/32/53
f 21/34/54 25/37/55 24/36/56 22/35/57
f 22/38/58 26/41/59 27/40/60 23/39/61
f 24/42/62 28/45/63 26/44/64 22/43/65
f 26/46/66 29/49/67 30/48/68 27/47/69
f 28/50/70 31/53/71 29/52/72 26/51/73
f 32/54/74 39/55/75 40/56/76
f 34/57/77 40/58/78 45/59/79
f 36/60/80 41/61/81 38/62/82
f 40/56/83 33/63/84 35/64/85
f 35/65/86 45/59/87 40/58/88
f 38/62/89 41/61/90 37/66/91
f 39/55/92 33/63/93 40/56/94
s 2
f 64/121/95 40/56/96 34/67/97
s off
f 14/68/98 43/69/99 42/70/100 11/71/101
f 11/72/102 42/73/103 44/74/104 15/75/105
f 37/76/106 46/77/107 45/59/108 35/65/109
f 34/57/110 45/59/111 46/77/112 36/78/113
f 41/79/114 46/77/115 37/76/116
f 36/78/117 46/77/118 41/79/119
f 43/80/120 14/81/121 47/82/122
f 51/83/123 50/84/124 49/85/125 48/86/126
f 49/87/127 50/88/128 52/89/129 53/90/130
f 50/91/131 51/92/132 55/93/133 54/94/134
f 52/95/135 50/96/136 54/97/137 56/98/138
f 54/99/139 55/100/140 58/101/141 57/102/142
f 56/103/143 54/104/144 57/105/145 59/106/146
f 14/107/147 19/108/148 60/109/149
f 47/110/150 14/111/151 60/112/152
f 60/113/153 19/114/154 61/115/155 62/116/156
f 47/117/157 60/118/158 62/119/159 63/120/160
s 2
f 32/54/161 40/56/96 64/121/95
s 1
f 9/14/24 65/122/23 3/3/162
