# This file uses centimeters as units for non-parametric coordinates.

mtllib origami_alt.mtl
v -0.041741 0.956784 0.467352
v -0.504085 0.643799 -0.095912
v -0.184039 0.608526 -0.617781
v -0.452281 0.749108 -0.656935
v -0.316876 0.251034 -0.348416
v -0.494090 0.267355 -0.381134
v -0.219764 0.417773 0.894426
v -0.130469 1.263272 0.381287
v -0.150337 1.318218 -0.144514
v -0.392963 0.047819 -0.025492
v -0.145100 1.937991 0.029443
v -0.198380 1.744141 -0.220245
v -0.502630 0.658574 -0.079405
v -0.084059 1.475450 0.193557
v -0.143435 1.925705 0.471315
v -0.138995 1.852915 0.472374
v -0.269330 0.684148 -0.073624
v -0.341228 0.232809 -0.070022
v -0.149719 1.343784 -0.153998
v -0.195339 0.488949 -0.071406
v -0.155372 0.445202 -0.472835
v -0.184039 0.608526 -0.617781
v -0.130469 1.263272 0.381287
v 0.007539 0.123349 -1.520396
v 0.007682 0.069390 -1.459234
v -0.158103 0.467689 -0.463950
v -0.098691 1.022217 -0.004923
v 0.012632 0.154782 -1.522118
v -0.046323 0.703536 -0.621221
v -0.030806 0.723453 -0.271596
v -0.040230 0.956880 0.467352
v 0.453649 0.684968 -0.095912
v 0.137636 0.621247 -0.617781
v 0.391842 0.791769 -0.656935
v 0.289806 0.259568 -0.348416
v 0.466500 0.282140 -0.381134
v 0.060443 0.424863 0.894426
v 0.001328 1.274634 0.381287
v 0.021175 1.333711 -0.144514
v 0.368649 0.047347 -0.025492
v -0.044175 1.762834 -0.220245
v 0.450861 0.700589 -0.079405
v -0.128783 1.854227 0.472374
v 0.216103 0.706104 -0.073624
v 0.314652 0.241183 -0.070022
v 0.015879 1.359045 -0.153998
v 0.157467 0.499888 -0.071406
v 0.120170 0.452861 -0.472835
v 0.137636 0.621247 -0.617781
v 0.001327 1.274634 0.381287
v 0.034010 0.123484 -1.520396
v 0.034153 0.069425 -1.459234
v 0.121596 0.475915 -0.463950
v 0.007499 1.029523 -0.004923
v 0.028559 0.154899 -1.522118
v -0.007777 0.705305 -0.621221
v -0.025090 0.723723 -0.271596
v -0.036560 0.885111 -0.281546
v -0.130461 0.701298 -0.382862
v -0.027188 0.707404 -0.640635
v 0.076214 0.710810 -0.382862
v -0.042733 1.028520 0.039121
v -0.048028 1.028280 0.040572
v -0.029825 0.806194 -0.178497
v -0.045586 1.025717 0.001787
v -0.030937 0.806135 -0.178497
v -0.137374 1.880246 0.299464
v -0.139045 1.822571 0.300523
v -0.121053 1.824844 0.300523
vt 0.000000 0.000000
vt 1.000000 0.000000
vt 0.000000 1.000000
vt 1.000000 1.000000
vt 0.000000 0.000000
vt 1.000000 0.000000
vt 1.000000 1.000000
vt 0.000000 1.000000
vt 0.000000 0.000000
vt 1.000000 0.000000
vt 0.500000 1.000000
vt 0.549059 0.000000
vt 0.549059 0.000000
vt 0.549059 1.000000
vt 0.549059 0.000000
vt 0.549059 1.000000
vt 1.000000 1.000000
vt 0.000000 1.000000
vt 1.034080 0.031985
vt 0.000000 0.040505
vt 0.000000 0.000000
vt 1.000000 0.000000
vt 1.000000 1.000000
vt 0.000000 1.000000
vt 0.549059 0.447271
vt 0.549059 0.821216
vt -0.002477 0.031210
vt 1.000000 0.000000
vt 1.000000 1.000000
vt 1.000000 1.000000
vt 0.000000 1.000000
vt 1.000000 0.222273
vt 0.000000 0.222273
vt 0.000000 0.000000
vt 1.000000 0.000000
vt 1.000000 1.000000
vt 0.000000 1.000000
vt 0.000000 0.000000
vt 1.000000 0.000000
vt 1.000000 1.000000
vt 0.000000 1.000000
vt 0.000000 0.000000
vt 1.000000 0.000000
vt 1.000000 1.000000
vt 0.000000 1.000000
vt 0.000000 0.000000
vt 1.000000 0.000000
vt 1.000000 1.000000
vt 0.000000 1.000000
vt 0.000000 0.000000
vt 1.000000 0.000000
vt 1.000000 1.000000
vt 0.000000 0.000000
vt 0.549059 0.000000
vt 0.549059 1.000000
vt 0.000000 0.000000
vt 0.549059 0.000000
vt 0.549059 0.447271
vt 0.000000 0.000000
vt 0.549059 0.000000
vt 0.500000 1.000000
vt 1.000000 0.000000
vt 1.000000 1.000000
vt 1.000000 0.000000
vt 1.000000 0.000000
vt 0.000000 1.000000
vt 0.000000 0.040505
vt 1.034080 0.031985
vt 1.000000 1.000000
vt 0.000000 1.000000
vt 0.000000 0.000000
vt 1.000000 0.000000
vt 1.000000 1.000000
vt 0.000000 1.000000
vt 1.000000 1.000000
vt 0.549059 0.821216
vt 0.000000 1.000000
vt 0.549059 1.000000
vt -0.002477 0.031210
vt 1.000000 0.000000
vt 1.000000 1.000000
vt 0.000000 0.222273
vt 1.000000 0.222273
vt 1.000000 1.000000
vt 0.000000 1.000000
vt 0.000000 0.000000
vt 1.000000 0.000000
vt 1.000000 1.000000
vt 0.000000 1.000000
vt 0.000000 0.000000
vt 1.000000 0.000000
vt 1.000000 1.000000
vt 0.000000 1.000000
vt 0.000000 0.000000
vt 1.000000 0.000000
vt 1.000000 1.000000
vt 0.000000 1.000000
vt 0.000000 0.000000
vt 1.000000 0.000000
vt 1.000000 1.000000
vt 0.000000 1.000000
vt 0.000000 0.000000
vt 1.000000 0.000000
vt 1.000000 1.000000
vt 0.000000 0.500000
vt 1.000000 0.000000
vt 1.000000 1.000000
vt 0.000000 0.000000
vt 1.000000 0.500000
vt 0.000000 1.000000
vt 0.000000 0.000000
vt 1.000000 0.000000
vt 1.000000 1.000000
vt 0.000000 1.000000
vt 0.000000 0.000000
vt 1.000000 0.000000
vt 1.000000 1.000000
vt 0.000000 1.000000
vt 0.000000 0.157370
vt 0.000000 0.152492
vt 0.000000 0.203910
vt 0.087839 0.956080
vt 0.912161 0.956080
vt 0.000000 0.184258
vt 0.000000 0.000000
vt 1.000000 0.000000
vt 1.000000 1.000000
vt 0.000000 1.000000
vt 0.000000 0.000000
vt 1.000000 0.000000
vt 1.000000 1.000000
vt 0.000000 1.000000
vn 0.961089 0.276140 -0.007459
vn 0.961089 0.276140 -0.007459
vn 0.961089 0.276140 -0.007459
vn -0.971067 0.162691 -0.174814
vn -0.971067 0.162691 -0.174814
vn -0.971067 0.162691 -0.174814
vn 0.924728 -0.380034 -0.021270
vn 0.924728 -0.380034 -0.021270
vn 0.924728 -0.380034 -0.021270
vn -0.885396 0.464805 0.005492
vn -0.885396 0.464805 0.005492
vn -0.885396 0.464805 0.005492
vn 0.926234 -0.208902 -0.313769
vn 0.926234 -0.208902 -0.313769
vn 0.926234 -0.208902 -0.313769
vn -0.971269 -0.091534 0.219679
vn -0.971269 -0.091534 0.219679
vn -0.971269 -0.091534 0.219679
vn -0.880135 0.467568 0.082118
vn -0.880135 0.467568 0.082118
vn -0.880135 0.467568 0.082118
vn 0.932351 0.358574 0.046337
vn 0.950322 0.308396 -0.042201
vn 0.929219 0.264797 -0.257751
vn -0.895510 0.217201 0.388439
vn -0.895511 0.217201 0.388439
vn -0.895510 0.217201 0.388439
vn -0.895511 0.217201 0.388439
vn 0.988893 -0.142841 -0.041067
vn 0.988893 -0.142841 -0.041067
vn 0.988893 -0.142841 -0.041067
vn 0.988893 -0.142841 -0.041067
vn 0.905107 -0.219361 -0.364228
vn 0.905107 -0.219361 -0.364228
vn 0.905107 -0.219361 -0.364228
vn 0.905107 -0.219361 -0.364228
vn -0.969867 0.197221 -0.143042
vn -0.969867 0.197221 -0.143042
vn -0.969867 0.197221 -0.143042
vn -0.969867 0.197221 -0.143042
vn 0.828952 -0.338929 -0.444933
vn 0.828952 -0.338929 -0.444933
vn 0.828952 -0.338929 -0.444933
vn -0.964946 0.253535 -0.067811
vn -0.964946 0.253535 -0.067811
vn -0.964947 0.253535 -0.067811
vn 0.889237 -0.457416 0.005290
vn 0.889237 -0.457416 0.005290
vn 0.889237 -0.457416 0.005290
vn 0.999039 -0.042314 0.011400
vn 0.999039 -0.042314 0.011400
vn 0.999039 -0.042314 0.011400
vn 0.999039 -0.042314 0.011400
vn 0.973611 0.211175 0.086529
vn 0.973611 0.211175 0.086529
vn 0.973611 0.211175 0.086529
vn 0.973611 0.211175 0.086529
vn -0.867798 -0.347369 0.355333
vn -0.867798 -0.347369 0.355333
vn -0.867798 -0.347369 0.355333
vn -0.867798 -0.347369 0.355333
vn -0.944440 -0.326011 -0.041819
vn -0.944441 -0.326011 -0.041819
vn -0.944441 -0.326011 -0.041819
vn -0.944441 -0.326011 -0.041819
vn 0.680667 -0.625543 0.381298
vn 0.680667 -0.625543 0.381298
vn 0.680667 -0.625543 0.381298
vn 0.680667 -0.625543 0.381298
vn 0.929653 -0.284486 0.234123
vn 0.929653 -0.284486 0.234123
vn 0.929653 -0.284486 0.234123
vn -0.992081 0.123362 -0.023588
vn -0.992081 0.123362 -0.023588
vn -0.992081 0.123362 -0.023588
vn 0.945132 0.273340 -0.178914
vn 0.945132 0.273340 -0.178914
vn 0.945132 0.273340 -0.178914
vn -0.874716 -0.474561 -0.098310
vn -0.874716 -0.474560 -0.098310
vn -0.874716 -0.474560 -0.098310
vn 0.831492 0.555358 0.014119
vn 0.831492 0.555358 0.014119
vn 0.831492 0.555358 0.014119
vn -0.895420 -0.313785 -0.315852
vn -0.895420 -0.313785 -0.315852
vn -0.895420 -0.313785 -0.315852
vn 0.953237 0.053331 0.297482
vn 0.953237 0.053331 0.297482
vn 0.953237 0.053331 0.297482
vn 0.825144 0.557091 0.093738
vn 0.825144 0.557091 0.093738
vn 0.825144 0.557091 0.093738
vn -0.982832 0.179075 -0.044426
vn -0.959152 0.139637 -0.246028
vn -0.924332 0.112847 -0.364521
vn 0.856323 0.381838 0.347721
vn 0.856323 0.381838 0.347721
vn 0.856324 0.381838 0.347721
vn 0.856323 0.381838 0.347721
vn -0.919669 -0.390653 -0.039998
vn -0.919669 -0.390653 -0.039998
vn -0.919669 -0.390653 -0.039998
vn -0.919669 -0.390653 -0.039998
vn -0.893253 -0.263239 -0.364423
vn -0.893253 -0.263239 -0.364423
vn -0.893253 -0.263239 -0.364423
vn -0.893253 -0.263239 -0.364423
vn 0.959404 0.244677 -0.140276
vn 0.959404 0.244677 -0.140276
vn 0.959404 0.244677 -0.140276
vn 0.959404 0.244677 -0.140276
vn -0.828994 -0.333982 -0.448582
vn -0.828994 -0.333982 -0.448582
vn -0.828994 -0.333982 -0.448582
vn 0.965007 0.252868 -0.069428
vn 0.965007 0.252868 -0.069428
vn 0.965007 0.252867 -0.069428
vn -0.830427 -0.554597 -0.053037
vn -0.830427 -0.554597 -0.053037
vn -0.830427 -0.554597 -0.053037
vn -0.989199 -0.146542 0.003355
vn -0.989199 -0.146542 0.003355
vn -0.989199 -0.146542 0.003355
vn -0.989199 -0.146542 0.003355
vn -0.991979 0.118360 0.044374
vn -0.991979 0.118360 0.044374
vn -0.991979 0.118360 0.044374
vn -0.991979 0.118360 0.044374
vn 0.910087 -0.228693 0.345603
vn 0.910087 -0.228693 0.345603
vn 0.910087 -0.228693 0.345604
vn 0.910087 -0.228693 0.345603
vn 0.979132 -0.202777 -0.013530
vn 0.979131 -0.202777 -0.013530
vn 0.979131 -0.202777 -0.013530
vn 0.979131 -0.202777 -0.013530
vn -0.646854 -0.668196 0.367552
vn -0.646854 -0.668196 0.367552
vn -0.646854 -0.668196 0.367552
vn -0.646854 -0.668196 0.367552
vn -0.905414 -0.377537 0.194140
vn -0.905414 -0.377537 0.194140
vn -0.905414 -0.377537 0.194140
vn -0.957332 -0.223987 0.182605
vn -0.957332 -0.223987 0.182605
vn -0.957332 -0.223987 0.182605
vn -0.957332 -0.223987 0.182605
vn 0.975468 -0.084958 0.203088
vn 0.975468 -0.084958 0.203088
vn 0.975468 -0.084958 0.203088
vn 0.975468 -0.084958 0.203088
vn 0.240648 -0.559932 0.792821
vn 0.240648 -0.559932 0.792821
vn 0.240648 -0.559932 0.792821
vn 0.240648 -0.559932 0.792821
vn -0.184139 -0.580278 0.793329
vn -0.184139 -0.580278 0.793329
vn -0.184139 -0.580278 0.793329
vn -0.184139 -0.580278 0.793329
vn -0.972150 0.230156 0.044184
vn 0.895660 0.233939 -0.378240
vn -0.911502 0.113590 -0.395300
vn 0.881057 0.232759 -0.411778
vn -0.999689 -0.021433 -0.012757
vn -0.999689 -0.021433 -0.012757
vn -0.999689 -0.021433 -0.012757
vn -0.999689 -0.021433 -0.012757
vn 0.971442 0.236942 -0.012616
vn 0.971442 0.236942 -0.012616
vn 0.971442 0.236942 -0.012616
vn 0.971442 0.236942 -0.012616
s off
g Variant1
usemtl initialShadingGroup
f 1/1/1 9/14/2 8/12/3
f 3/5/4 17/25/5 9/13/6
f 5/9/7 7/11/8 10/15/9
f 9/14/10 4/4/11 2/2/12
f 4/6/13 9/13/14 17/25/15
f 7/11/16 6/10/17 10/15/18
f 8/12/19 9/14/20 2/2/21
s 1
f 1/1/22 63/120/23 9/14/24
s off
f 14/20/25 11/18/26 12/17/27 13/19/28
f 11/21/29 15/24/30 16/23/31 12/22/32
f 6/7/33 4/6/34 17/25/35 18/26/36
f 3/5/37 5/8/38 18/26/39 17/25/40
f 10/16/41 6/7/42 18/26/43
f 5/8/44 10/16/45 18/26/46
f 13/27/47 19/29/48 14/28/49
f 23/33/50 20/31/51 21/30/52 22/32/53
f 21/34/54 25/37/55 24/36/56 22/35/57
f 22/38/58 26/41/59 27/40/60 23/39/61
f 24/42/62 28/45/63 26/44/64 22/43/65
f 26/46/66 29/49/67 30/48/68 27/47/69
f 28/50/70 29/52/71 26/51/72
f 31/53/73 38/54/74 39/55/75
f 33/56/76 39/57/77 44/58/78
f 35/59/79 40/60/80 37/61/81
f 39/55/82 32/62/83 34/63/84
f 34/64/85 44/58/86 39/57/87
f 37/61/88 40/60/89 36/65/90
f 38/54/91 32/62/92 39/55/93
s 2
f 62/119/94 39/55/95 64/121/96
s off
f 14/67/97 42/68/98 41/69/99 11/70/100
f 11/71/101 41/72/102 43/73/103 15/74/104
f 36/75/105 45/76/106 44/58/107 34/64/108
f 33/56/109 44/58/110 45/76/111 35/77/112
f 40/78/113 45/76/114 36/75/115
f 35/77/116 45/76/117 40/78/118
f 42/79/119 14/80/120 46/81/121
f 50/82/122 49/83/123 48/84/124 47/85/125
f 48/86/126 49/87/127 51/88/128 52/89/129
f 49/90/130 50/91/131 54/92/132 53/93/133
f 51/94/134 49/95/135 53/96/136 55/97/137
f 53/98/138 54/99/139 57/100/140 56/101/141
f 55/102/142 53/103/143 56/104/144
f 14/105/145 19/106/146 58/107/147 65/123/148
f 46/108/149 14/109/150 65/122/151 58/110/152
f 58/111/153 19/112/154 59/113/155 60/114/156
f 46/115/157 58/116/158 60/117/159 61/118/160
s 2
f 31/53/161 39/55/95 62/119/94
s 1
f 9/14/24 63/120/23 66/124/162
s 2
f 64/121/96 39/55/95 33/66/163
s 1
f 9/14/24 66/124/162 3/3/164
s off
f 16/125/165 15/126/166 67/127/167 68/128/168
f 15/129/169 43/130/170 69/131/171 67/132/172
